<svg xmlns="http://www.w3.org/2000/svg" xmlns:xlink="http://www.w3.org/1999/xlink" width="500" zoomAndPan="magnify" viewBox="0 0 375 374.999991" height="500" preserveAspectRatio="xMidYMid meet" version="1.0"><defs><g/><clipPath id="50fc304c82"><path d="M 71.535156 116.5625 L 303.285156 116.5625 L 303.285156 192.3125 L 71.535156 192.3125 Z M 71.535156 116.5625 " clip-rule="nonzero"/></clipPath></defs><rect x="-37.5" width="450" fill="#ffffff" y="-37.499999" height="449.999989" fill-opacity="1"/><rect x="-37.5" width="450" fill="#ffffff" y="-37.499999" height="449.999989" fill-opacity="1"/><rect x="-37.5" width="450" fill="#223971" y="-37.499999" height="449.999989" fill-opacity="1"/><g clip-path="url(#50fc304c82)"><path fill="#ffffff" d="M 256.96875 189.886719 C 272.40625 175.761719 287.847656 161.632812 303.285156 147.507812 C 233.707031 136.949219 162.574219 148.324219 89.820312 182.738281 C 140.9375 165.175781 192.792969 150.636719 250.214844 159.015625 C 183.546875 156.148438 127.015625 173.105469 71.535156 192.128906 C 127.125 175.269531 182.578125 160.945312 236.925781 167.320312 C 217.546875 167.734375 198.441406 169.109375 180.308594 173.929688 C 206.8125 172.921875 232.457031 177.617188 256.96875 189.886719 Z M 141.109375 158.535156 C 177.160156 142.269531 213.324219 134.128906 249.644531 137.867188 C 239.753906 130.824219 229.867188 123.785156 219.980469 116.742188 C 189.476562 127.644531 161.238281 140.179688 141.109375 158.535156 Z M 101.527344 188.820312 C 147.5 177.535156 191.304688 172.960938 228.828125 187.855469 C 187.488281 178.683594 144.640625 182.609375 101.527344 188.820312 Z M 101.527344 188.820312 " fill-opacity="1" fill-rule="evenodd"/></g><g fill="#ffffff" fill-opacity="1"><g transform="translate(102.534134, 231.788481)"><g><path d="M 8.734375 0.171875 C 8.453125 0.171875 8.207031 0.117188 8 0.015625 C 7.789062 -0.078125 7.6875 -0.207031 7.6875 -0.375 C 7.6875 -0.59375 7.78125 -0.769531 7.96875 -0.90625 C 8.164062 -1.050781 8.445312 -1.15625 8.8125 -1.21875 C 9.875 -1.4375 10.65625 -1.742188 11.15625 -2.140625 C 11.65625 -2.546875 11.90625 -3.210938 11.90625 -4.140625 L 11.90625 -21.046875 C 11.90625 -22.191406 11.875 -23.054688 11.8125 -23.640625 C 11.757812 -24.222656 11.679688 -24.617188 11.578125 -24.828125 C 11.484375 -25.035156 11.34375 -25.15625 11.15625 -25.1875 C 10.875 -25.300781 10.523438 -25.367188 10.109375 -25.390625 C 9.691406 -25.421875 9.285156 -25.4375 8.890625 -25.4375 L 7.59375 -25.4375 C 6.789062 -25.4375 6.015625 -25.25 5.265625 -24.875 C 4.515625 -24.5 3.929688 -23.988281 3.515625 -23.34375 C 3.398438 -23.175781 3.222656 -22.9375 2.984375 -22.625 C 2.742188 -22.320312 2.492188 -22.046875 2.234375 -21.796875 C 1.972656 -21.546875 1.703125 -21.421875 1.421875 -21.421875 C 1.222656 -21.421875 1.085938 -21.488281 1.015625 -21.625 C 0.953125 -21.769531 0.921875 -21.925781 0.921875 -22.09375 C 0.921875 -22.425781 1.003906 -22.757812 1.171875 -23.09375 C 1.640625 -24.039062 1.992188 -24.867188 2.234375 -25.578125 C 2.472656 -26.285156 2.632812 -27.128906 2.71875 -28.109375 C 2.769531 -28.523438 2.882812 -28.796875 3.0625 -28.921875 C 3.25 -29.046875 3.441406 -29.109375 3.640625 -29.109375 C 3.804688 -29.109375 4.003906 -28.929688 4.234375 -28.578125 C 4.472656 -28.234375 4.691406 -27.953125 4.890625 -27.734375 C 5.140625 -27.484375 5.582031 -27.296875 6.21875 -27.171875 C 6.863281 -27.046875 7.410156 -26.984375 7.859375 -26.984375 L 23.265625 -27.015625 C 24.046875 -27.015625 24.695312 -27.078125 25.21875 -27.203125 C 25.75 -27.328125 26.171875 -27.460938 26.484375 -27.609375 C 26.898438 -27.859375 27.234375 -28.113281 27.484375 -28.375 C 27.734375 -28.644531 28.023438 -28.78125 28.359375 -28.78125 C 28.492188 -28.78125 28.597656 -28.703125 28.671875 -28.546875 C 28.742188 -28.390625 28.78125 -28.203125 28.78125 -27.984375 C 28.78125 -27.847656 28.765625 -27.6875 28.734375 -27.5 C 28.703125 -27.320312 28.675781 -27.160156 28.65625 -27.015625 C 28.539062 -26.492188 28.425781 -26.03125 28.3125 -25.625 C 28.207031 -25.21875 28.117188 -24.835938 28.046875 -24.484375 C 27.972656 -24.140625 27.9375 -23.75 27.9375 -23.3125 L 27.9375 -22.59375 C 27.9375 -22.207031 27.878906 -21.875 27.765625 -21.59375 C 27.660156 -21.3125 27.484375 -21.171875 27.234375 -21.171875 C 27.003906 -21.171875 26.8125 -21.300781 26.65625 -21.5625 C 26.507812 -21.832031 26.351562 -22.242188 26.1875 -22.796875 C 25.9375 -23.691406 25.519531 -24.351562 24.9375 -24.78125 C 24.351562 -25.21875 23.429688 -25.4375 22.171875 -25.4375 L 19.34375 -25.4375 C 18.8125 -25.4375 18.398438 -25.335938 18.109375 -25.140625 C 17.816406 -24.941406 17.609375 -24.515625 17.484375 -23.859375 C 17.359375 -23.210938 17.296875 -22.207031 17.296875 -20.84375 L 17.296875 -4.171875 C 17.296875 -3.285156 17.546875 -2.640625 18.046875 -2.234375 C 18.546875 -1.828125 19.335938 -1.488281 20.421875 -1.21875 C 20.753906 -1.125 21.019531 -1.019531 21.21875 -0.90625 C 21.414062 -0.800781 21.515625 -0.640625 21.515625 -0.421875 C 21.515625 -0.222656 21.421875 -0.0820312 21.234375 0 C 21.054688 0.0820312 20.828125 0.125 20.546875 0.125 C 19.878906 0.125 19.210938 0.109375 18.546875 0.078125 C 17.878906 0.0546875 17.21875 0.03125 16.5625 0 C 15.90625 -0.03125 15.269531 -0.046875 14.65625 -0.046875 C 14.039062 -0.046875 13.40625 -0.03125 12.75 0 C 12.101562 0.03125 11.4375 0.0664062 10.75 0.109375 C 10.070312 0.148438 9.398438 0.171875 8.734375 0.171875 Z M 8.734375 0.171875 "/></g></g></g><g fill="#ffffff" fill-opacity="1"><g transform="translate(141.076062, 231.788481)"><g><path d="M 1.671875 0.125 C 1.453125 0.125 1.269531 0.078125 1.125 -0.015625 C 0.988281 -0.117188 0.921875 -0.253906 0.921875 -0.421875 C 0.921875 -0.640625 1.003906 -0.800781 1.171875 -0.90625 C 1.335938 -1.019531 1.53125 -1.109375 1.75 -1.171875 C 2.414062 -1.335938 2.894531 -1.515625 3.1875 -1.703125 C 3.488281 -1.898438 3.640625 -2.238281 3.640625 -2.71875 L 3.640625 -11.78125 C 3.640625 -12.664062 3.5 -13.332031 3.21875 -13.78125 C 2.9375 -14.226562 2.460938 -14.507812 1.796875 -14.625 C 1.660156 -14.644531 1.550781 -14.71875 1.46875 -14.84375 C 1.382812 -14.96875 1.34375 -15.113281 1.34375 -15.28125 C 1.34375 -15.675781 1.492188 -15.882812 1.796875 -15.90625 C 3.128906 -16.1875 4.289062 -16.570312 5.28125 -17.0625 C 6.269531 -17.550781 7.03125 -17.929688 7.5625 -18.203125 C 7.945312 -18.398438 8.195312 -18.5 8.3125 -18.5 C 8.613281 -18.5 8.765625 -18.359375 8.765625 -18.078125 C 8.742188 -17.691406 8.691406 -17.15625 8.609375 -16.46875 C 8.523438 -15.789062 8.445312 -15.066406 8.375 -14.296875 C 8.300781 -13.535156 8.265625 -12.820312 8.265625 -12.15625 L 8.265625 -2.75 C 8.265625 -2.332031 8.414062 -2.015625 8.71875 -1.796875 C 9.03125 -1.578125 9.519531 -1.367188 10.1875 -1.171875 C 10.414062 -1.085938 10.613281 -0.992188 10.78125 -0.890625 C 10.945312 -0.796875 11.03125 -0.640625 11.03125 -0.421875 C 11.03125 -0.0859375 10.789062 0.078125 10.3125 0.078125 C 9.78125 0.078125 9.269531 0.0625 8.78125 0.03125 C 8.300781 0.0078125 7.832031 -0.0078125 7.375 -0.03125 C 6.914062 -0.0625 6.4375 -0.078125 5.9375 -0.078125 C 5.457031 -0.078125 4.992188 -0.0625 4.546875 -0.03125 C 4.109375 -0.0078125 3.65625 0.0195312 3.1875 0.0625 C 2.726562 0.101562 2.222656 0.125 1.671875 0.125 Z M 5.84375 -20.921875 C 5.039062 -20.921875 4.359375 -21.195312 3.796875 -21.75 C 3.242188 -22.3125 2.96875 -22.984375 2.96875 -23.765625 C 2.96875 -24.628906 3.242188 -25.335938 3.796875 -25.890625 C 4.359375 -26.453125 5.039062 -26.734375 5.84375 -26.734375 C 6.6875 -26.734375 7.382812 -26.453125 7.9375 -25.890625 C 8.488281 -25.335938 8.765625 -24.628906 8.765625 -23.765625 C 8.765625 -22.984375 8.488281 -22.3125 7.9375 -21.75 C 7.382812 -21.195312 6.6875 -20.921875 5.84375 -20.921875 Z M 5.84375 -20.921875 "/></g></g></g><g fill="#ffffff" fill-opacity="1"><g transform="translate(162.582384, 231.788481)"><g><path d="M 8.859375 0.578125 C 7.328125 0.578125 5.972656 0.191406 4.796875 -0.578125 C 3.628906 -1.359375 2.710938 -2.4375 2.046875 -3.8125 C 1.378906 -5.195312 1.046875 -6.765625 1.046875 -8.515625 C 1.046875 -10.210938 1.441406 -11.765625 2.234375 -13.171875 C 3.023438 -14.578125 4.085938 -15.695312 5.421875 -16.53125 C 6.765625 -17.375 8.226562 -17.796875 9.8125 -17.796875 C 10.976562 -17.796875 12.019531 -17.550781 12.9375 -17.0625 C 13.863281 -16.570312 14.597656 -15.898438 15.140625 -15.046875 C 15.679688 -14.203125 15.953125 -13.253906 15.953125 -12.203125 C 15.953125 -11.191406 15.519531 -10.6875 14.65625 -10.6875 L 6.1875 -10.6875 C 5.789062 -10.6875 5.5 -10.582031 5.3125 -10.375 C 5.132812 -10.164062 5.046875 -9.785156 5.046875 -9.234375 C 5.046875 -8.054688 5.300781 -6.992188 5.8125 -6.046875 C 6.332031 -5.109375 7.023438 -4.359375 7.890625 -3.796875 C 8.753906 -3.242188 9.742188 -2.96875 10.859375 -2.96875 C 11.660156 -2.96875 12.398438 -3.125 13.078125 -3.4375 C 13.765625 -3.757812 14.414062 -4.203125 15.03125 -4.765625 C 15.144531 -4.847656 15.242188 -4.921875 15.328125 -4.984375 C 15.410156 -5.054688 15.492188 -5.09375 15.578125 -5.09375 C 15.859375 -5.09375 16 -4.925781 16 -4.59375 C 16 -4.207031 15.832031 -3.734375 15.5 -3.171875 C 15.164062 -2.535156 14.679688 -1.921875 14.046875 -1.328125 C 13.421875 -0.742188 12.660156 -0.28125 11.765625 0.0625 C 10.878906 0.40625 9.910156 0.578125 8.859375 0.578125 Z M 6.1875 -12.328125 L 9.140625 -12.328125 C 9.867188 -12.328125 10.410156 -12.335938 10.765625 -12.359375 C 11.128906 -12.390625 11.476562 -12.445312 11.8125 -12.53125 C 11.957031 -12.5625 12.054688 -12.679688 12.109375 -12.890625 C 12.171875 -13.097656 12.203125 -13.335938 12.203125 -13.609375 C 12.203125 -14.367188 11.914062 -15.003906 11.34375 -15.515625 C 10.769531 -16.023438 10.066406 -16.28125 9.234375 -16.28125 C 8.648438 -16.28125 8.078125 -16.109375 7.515625 -15.765625 C 6.960938 -15.421875 6.503906 -14.984375 6.140625 -14.453125 C 5.773438 -13.921875 5.609375 -13.378906 5.640625 -12.828125 C 5.640625 -12.492188 5.820312 -12.328125 6.1875 -12.328125 Z M 6.1875 -12.328125 "/></g></g></g><g fill="#ffffff" fill-opacity="1"><g transform="translate(189.474962, 231.788481)"><g><path d="M 1.75 0.125 C 1.53125 0.125 1.335938 0.078125 1.171875 -0.015625 C 1.003906 -0.117188 0.921875 -0.253906 0.921875 -0.421875 C 0.921875 -0.640625 1.007812 -0.800781 1.1875 -0.90625 C 1.375 -1.019531 1.601562 -1.125 1.875 -1.21875 C 2.289062 -1.320312 2.671875 -1.472656 3.015625 -1.671875 C 3.367188 -1.867188 3.546875 -2.242188 3.546875 -2.796875 L 3.546875 -12.15625 C 3.546875 -12.789062 3.453125 -13.335938 3.265625 -13.796875 C 3.085938 -14.265625 2.707031 -14.566406 2.125 -14.703125 C 2.019531 -14.753906 1.925781 -14.828125 1.84375 -14.921875 C 1.757812 -15.023438 1.71875 -15.1875 1.71875 -15.40625 C 1.71875 -15.769531 1.84375 -15.976562 2.09375 -16.03125 C 3.0625 -16.257812 4.023438 -16.5625 4.984375 -16.9375 C 5.953125 -17.3125 6.796875 -17.707031 7.515625 -18.125 C 7.628906 -18.175781 7.738281 -18.242188 7.84375 -18.328125 C 7.957031 -18.410156 8.070312 -18.453125 8.1875 -18.453125 C 8.320312 -18.453125 8.410156 -18.40625 8.453125 -18.3125 C 8.492188 -18.21875 8.515625 -18.113281 8.515625 -18 C 8.515625 -17.800781 8.476562 -17.4375 8.40625 -16.90625 C 8.34375 -16.382812 8.3125 -15.925781 8.3125 -15.53125 C 8.3125 -15.425781 8.316406 -15.3125 8.328125 -15.1875 C 8.347656 -15.0625 8.367188 -14.984375 8.390625 -14.953125 C 9.335938 -15.835938 10.316406 -16.53125 11.328125 -17.03125 C 12.347656 -17.539062 13.5 -17.796875 14.78125 -17.796875 C 16.207031 -17.796875 17.398438 -17.25 18.359375 -16.15625 C 19.316406 -15.070312 19.796875 -13.640625 19.796875 -11.859375 L 19.796875 -2.75 C 19.796875 -2.195312 19.960938 -1.835938 20.296875 -1.671875 C 20.628906 -1.503906 21.003906 -1.351562 21.421875 -1.21875 C 21.648438 -1.125 21.859375 -1.015625 22.046875 -0.890625 C 22.242188 -0.765625 22.34375 -0.59375 22.34375 -0.375 C 22.34375 -0.207031 22.25 -0.0820312 22.0625 0 C 21.882812 0.0820312 21.710938 0.125 21.546875 0.125 C 20.992188 0.125 20.507812 0.101562 20.09375 0.0625 C 19.675781 0.0195312 19.265625 -0.0078125 18.859375 -0.03125 C 18.453125 -0.0625 18 -0.078125 17.5 -0.078125 C 17.03125 -0.078125 16.582031 -0.0625 16.15625 -0.03125 C 15.738281 -0.0078125 15.3125 0.0195312 14.875 0.0625 C 14.445312 0.101562 13.957031 0.125 13.40625 0.125 C 13.269531 0.125 13.117188 0.0820312 12.953125 0 C 12.785156 -0.0820312 12.703125 -0.207031 12.703125 -0.375 C 12.703125 -0.59375 12.785156 -0.765625 12.953125 -0.890625 C 13.117188 -1.015625 13.3125 -1.125 13.53125 -1.21875 C 13.945312 -1.351562 14.316406 -1.503906 14.640625 -1.671875 C 14.960938 -1.835938 15.125 -2.195312 15.125 -2.75 L 15.125 -11.234375 C 15.125 -12.347656 14.847656 -13.222656 14.296875 -13.859375 C 13.753906 -14.503906 13.023438 -14.828125 12.109375 -14.828125 C 11.359375 -14.828125 10.703125 -14.710938 10.140625 -14.484375 C 9.585938 -14.265625 9.046875 -13.945312 8.515625 -13.53125 C 8.410156 -13.445312 8.328125 -13.328125 8.265625 -13.171875 C 8.210938 -13.023438 8.1875 -12.867188 8.1875 -12.703125 L 8.1875 -2.75 C 8.1875 -2.195312 8.34375 -1.828125 8.65625 -1.640625 C 8.976562 -1.460938 9.347656 -1.320312 9.765625 -1.21875 C 10.359375 -1.019531 10.65625 -0.753906 10.65625 -0.421875 C 10.65625 -0.253906 10.582031 -0.117188 10.4375 -0.015625 C 10.300781 0.078125 10.125 0.125 9.90625 0.125 C 9.34375 0.125 8.851562 0.101562 8.4375 0.0625 C 8.019531 0.0195312 7.613281 -0.0078125 7.21875 -0.03125 C 6.832031 -0.0625 6.390625 -0.078125 5.890625 -0.078125 C 5.410156 -0.078125 4.960938 -0.0625 4.546875 -0.03125 C 4.128906 -0.0078125 3.695312 0.0195312 3.25 0.0625 C 2.8125 0.101562 2.3125 0.125 1.75 0.125 Z M 1.75 0.125 "/></g></g></g><g fill="#ffffff" fill-opacity="1"><g transform="translate(222.421859, 231.788481)"><g><path d="M 14.953125 0.796875 C 14.867188 0.796875 14.75 0.71875 14.59375 0.5625 C 14.445312 0.40625 14.375 0.285156 14.375 0.203125 C 14.425781 -0.179688 14.472656 -0.585938 14.515625 -1.015625 C 14.554688 -1.453125 14.59375 -1.820312 14.625 -2.125 L 14.625 -2.375 C 14.09375 -1.601562 13.34375 -0.914062 12.375 -0.3125 C 11.414062 0.28125 10.328125 0.578125 9.109375 0.578125 C 7.546875 0.578125 6.164062 0.179688 4.96875 -0.609375 C 3.769531 -1.398438 2.828125 -2.457031 2.140625 -3.78125 C 1.460938 -5.101562 1.125 -6.53125 1.125 -8.0625 C 1.125 -9.875 1.535156 -11.507812 2.359375 -12.96875 C 3.179688 -14.425781 4.328125 -15.578125 5.796875 -16.421875 C 7.273438 -17.273438 8.988281 -17.703125 10.9375 -17.703125 C 11.414062 -17.703125 11.894531 -17.664062 12.375 -17.59375 C 12.863281 -17.53125 13.289062 -17.441406 13.65625 -17.328125 C 13.988281 -17.242188 14.171875 -17.203125 14.203125 -17.203125 C 14.335938 -17.203125 14.40625 -17.441406 14.40625 -17.921875 L 14.40625 -23.1875 C 14.40625 -24.238281 14.265625 -24.972656 13.984375 -25.390625 C 13.710938 -25.804688 13.269531 -26.070312 12.65625 -26.1875 C 12.351562 -26.269531 12.203125 -26.476562 12.203125 -26.8125 C 12.203125 -27.113281 12.335938 -27.304688 12.609375 -27.390625 C 13.691406 -27.648438 14.710938 -27.9375 15.671875 -28.25 C 16.640625 -28.570312 17.429688 -28.875 18.046875 -29.15625 C 18.316406 -29.257812 18.515625 -29.332031 18.640625 -29.375 C 18.773438 -29.414062 18.851562 -29.4375 18.875 -29.4375 C 19.15625 -29.4375 19.296875 -29.300781 19.296875 -29.03125 C 19.296875 -29.03125 19.28125 -28.863281 19.25 -28.53125 C 19.226562 -28.195312 19.195312 -27.742188 19.15625 -27.171875 C 19.113281 -26.597656 19.078125 -25.945312 19.046875 -25.21875 L 18.921875 -4.890625 C 18.921875 -3.941406 18.988281 -3.257812 19.125 -2.84375 C 19.269531 -2.425781 19.507812 -2.21875 19.84375 -2.21875 C 19.976562 -2.21875 20.15625 -2.222656 20.375 -2.234375 C 20.601562 -2.242188 20.992188 -2.28125 21.546875 -2.34375 C 21.960938 -2.363281 22.171875 -2.222656 22.171875 -1.921875 C 22.171875 -1.703125 22.09375 -1.484375 21.9375 -1.265625 C 21.789062 -1.054688 21.648438 -0.953125 21.515625 -0.953125 C 20.566406 -0.847656 19.601562 -0.671875 18.625 -0.421875 C 17.65625 -0.171875 16.664062 0.148438 15.65625 0.546875 C 15.46875 0.628906 15.320312 0.691406 15.21875 0.734375 C 15.125 0.773438 15.035156 0.796875 14.953125 0.796875 Z M 11.03125 -2.046875 C 11.550781 -2.046875 12.128906 -2.175781 12.765625 -2.4375 C 13.410156 -2.707031 13.957031 -3.078125 14.40625 -3.546875 L 14.40625 -12.234375 C 14.40625 -12.816406 14.207031 -13.394531 13.8125 -13.96875 C 13.425781 -14.539062 12.910156 -15.015625 12.265625 -15.390625 C 11.628906 -15.765625 10.953125 -15.953125 10.234375 -15.953125 C 9.566406 -15.953125 8.910156 -15.707031 8.265625 -15.21875 C 7.628906 -14.738281 7.09375 -13.992188 6.65625 -12.984375 C 6.226562 -11.984375 6.015625 -10.703125 6.015625 -9.140625 C 6.015625 -7.859375 6.171875 -6.765625 6.484375 -5.859375 C 6.804688 -4.960938 7.21875 -4.234375 7.71875 -3.671875 C 8.226562 -3.117188 8.773438 -2.707031 9.359375 -2.4375 C 9.941406 -2.175781 10.5 -2.046875 11.03125 -2.046875 Z M 11.03125 -2.046875 "/></g></g></g><g fill="#ffffff" fill-opacity="1"><g transform="translate(254.700696, 231.788481)"><g><path d="M 5.21875 0.578125 C 4.550781 0.578125 3.914062 0.394531 3.3125 0.03125 C 2.71875 -0.320312 2.238281 -0.789062 1.875 -1.375 C 1.519531 -1.957031 1.34375 -2.554688 1.34375 -3.171875 C 1.34375 -4.117188 1.617188 -4.890625 2.171875 -5.484375 C 2.722656 -6.085938 3.554688 -6.625 4.671875 -7.09375 L 8.5625 -8.765625 C 9.113281 -8.992188 9.453125 -9.203125 9.578125 -9.390625 C 9.703125 -9.585938 9.765625 -9.953125 9.765625 -10.484375 L 9.859375 -12.953125 C 9.890625 -13.722656 9.726562 -14.34375 9.375 -14.8125 C 9.03125 -15.289062 8.507812 -15.53125 7.8125 -15.53125 C 7.445312 -15.53125 7.066406 -15.460938 6.671875 -15.328125 C 6.285156 -15.191406 5.984375 -15.007812 5.765625 -14.78125 C 5.648438 -14.675781 5.570312 -14.53125 5.53125 -14.34375 C 5.488281 -14.164062 5.46875 -13.992188 5.46875 -13.828125 C 5.46875 -13.679688 5.472656 -13.503906 5.484375 -13.296875 C 5.503906 -13.085938 5.515625 -12.898438 5.515625 -12.734375 C 5.515625 -12.566406 5.304688 -12.359375 4.890625 -12.109375 C 4.472656 -11.859375 4 -11.632812 3.46875 -11.4375 C 2.9375 -11.25 2.488281 -11.15625 2.125 -11.15625 C 1.9375 -11.15625 1.785156 -11.222656 1.671875 -11.359375 C 1.554688 -11.492188 1.5 -11.660156 1.5 -11.859375 C 1.5 -12.304688 1.644531 -12.757812 1.9375 -13.21875 C 2.226562 -13.675781 2.695312 -14.171875 3.34375 -14.703125 C 4.039062 -15.285156 4.804688 -15.804688 5.640625 -16.265625 C 6.472656 -16.722656 7.285156 -17.09375 8.078125 -17.375 C 8.867188 -17.65625 9.5625 -17.796875 10.15625 -17.796875 C 11.488281 -17.796875 12.554688 -17.351562 13.359375 -16.46875 C 14.171875 -15.59375 14.5625 -14.445312 14.53125 -13.03125 L 14.328125 -4.09375 C 14.296875 -3.476562 14.410156 -2.960938 14.671875 -2.546875 C 14.941406 -2.128906 15.269531 -1.921875 15.65625 -1.921875 C 16.25 -1.921875 16.722656 -2.085938 17.078125 -2.421875 C 17.191406 -2.535156 17.289062 -2.59375 17.375 -2.59375 C 17.507812 -2.59375 17.625 -2.539062 17.71875 -2.4375 C 17.820312 -2.34375 17.875 -2.226562 17.875 -2.09375 C 17.875 -1.78125 17.648438 -1.398438 17.203125 -0.953125 C 16.703125 -0.453125 16.164062 -0.0703125 15.59375 0.1875 C 15.03125 0.445312 14.46875 0.578125 13.90625 0.578125 C 12.425781 0.578125 11.226562 -0.1875 10.3125 -1.71875 L 10.1875 -1.71875 C 9.269531 -0.90625 8.425781 -0.320312 7.65625 0.03125 C 6.894531 0.394531 6.082031 0.578125 5.21875 0.578125 Z M 7.515625 -1.921875 C 7.910156 -1.921875 8.242188 -1.984375 8.515625 -2.109375 C 8.796875 -2.234375 9.035156 -2.40625 9.234375 -2.625 C 9.335938 -2.769531 9.425781 -2.9375 9.5 -3.125 C 9.570312 -3.320312 9.617188 -3.601562 9.640625 -3.96875 L 9.734375 -6.640625 C 9.753906 -6.921875 9.722656 -7.109375 9.640625 -7.203125 C 9.554688 -7.296875 9.460938 -7.34375 9.359375 -7.34375 C 9.296875 -7.34375 9.207031 -7.335938 9.09375 -7.328125 C 8.988281 -7.316406 8.867188 -7.269531 8.734375 -7.1875 C 7.703125 -6.769531 6.960938 -6.320312 6.515625 -5.84375 C 6.066406 -5.375 5.84375 -4.765625 5.84375 -4.015625 C 5.84375 -3.253906 6.023438 -2.710938 6.390625 -2.390625 C 6.753906 -2.078125 7.128906 -1.921875 7.515625 -1.921875 Z M 7.515625 -1.921875 "/></g></g></g><g fill="#ffffff" fill-opacity="1"><g transform="translate(136.3568, 254.091252)"><g><path d="M 0.65625 0.0625 C 0.5625 0.0625 0.472656 0.0390625 0.390625 0 C 0.316406 -0.03125 0.28125 -0.0820312 0.28125 -0.15625 C 0.28125 -0.3125 0.414062 -0.421875 0.6875 -0.484375 C 1.113281 -0.566406 1.414062 -0.6875 1.59375 -0.84375 C 1.78125 -1 1.875 -1.253906 1.875 -1.609375 L 1.875 -9.09375 C 1.875 -9.457031 1.796875 -9.71875 1.640625 -9.875 C 1.492188 -10.03125 1.207031 -10.148438 0.78125 -10.234375 C 0.5 -10.296875 0.359375 -10.414062 0.359375 -10.59375 C 0.359375 -10.65625 0.394531 -10.703125 0.46875 -10.734375 C 0.550781 -10.773438 0.644531 -10.796875 0.75 -10.796875 C 1.007812 -10.796875 1.265625 -10.789062 1.515625 -10.78125 C 1.773438 -10.769531 2.019531 -10.757812 2.25 -10.75 C 2.488281 -10.738281 2.726562 -10.734375 2.96875 -10.734375 C 3.195312 -10.734375 3.429688 -10.738281 3.671875 -10.75 C 3.910156 -10.757812 4.15625 -10.769531 4.40625 -10.78125 C 4.664062 -10.789062 4.925781 -10.796875 5.1875 -10.796875 C 5.289062 -10.796875 5.375 -10.773438 5.4375 -10.734375 C 5.507812 -10.703125 5.546875 -10.644531 5.546875 -10.5625 C 5.546875 -10.476562 5.507812 -10.410156 5.4375 -10.359375 C 5.363281 -10.316406 5.265625 -10.273438 5.140625 -10.234375 C 4.691406 -10.128906 4.390625 -10 4.234375 -9.84375 C 4.085938 -9.6875 4.015625 -9.429688 4.015625 -9.078125 L 4.015625 -1.625 C 4.015625 -1.28125 4.101562 -1.03125 4.28125 -0.875 C 4.46875 -0.71875 4.769531 -0.585938 5.1875 -0.484375 C 5.332031 -0.441406 5.4375 -0.398438 5.5 -0.359375 C 5.570312 -0.316406 5.609375 -0.253906 5.609375 -0.171875 C 5.609375 -0.0859375 5.578125 -0.03125 5.515625 0 C 5.453125 0.03125 5.363281 0.046875 5.25 0.046875 C 4.988281 0.046875 4.722656 0.0390625 4.453125 0.03125 C 4.191406 0.0195312 3.9375 0.0078125 3.6875 0 C 3.4375 -0.0078125 3.195312 -0.015625 2.96875 -0.015625 C 2.726562 -0.015625 2.476562 -0.0078125 2.21875 0 C 1.96875 0.0078125 1.710938 0.0195312 1.453125 0.03125 C 1.191406 0.0507812 0.925781 0.0625 0.65625 0.0625 Z M 0.65625 0.0625 "/></g></g></g><g fill="#ffffff" fill-opacity="1"><g transform="translate(145.737979, 254.091252)"><g><path d="M 0.6875 0.046875 C 0.601562 0.046875 0.523438 0.03125 0.453125 0 C 0.390625 -0.0390625 0.359375 -0.0976562 0.359375 -0.171875 C 0.359375 -0.253906 0.394531 -0.316406 0.46875 -0.359375 C 0.539062 -0.398438 0.632812 -0.441406 0.75 -0.484375 C 0.90625 -0.523438 1.050781 -0.582031 1.1875 -0.65625 C 1.332031 -0.738281 1.40625 -0.890625 1.40625 -1.109375 L 1.40625 -4.8125 C 1.40625 -5.0625 1.367188 -5.273438 1.296875 -5.453125 C 1.222656 -5.640625 1.070312 -5.757812 0.84375 -5.8125 C 0.800781 -5.832031 0.757812 -5.863281 0.71875 -5.90625 C 0.6875 -5.945312 0.671875 -6.007812 0.671875 -6.09375 C 0.671875 -6.238281 0.722656 -6.320312 0.828125 -6.34375 C 1.210938 -6.425781 1.59375 -6.539062 1.96875 -6.6875 C 2.351562 -6.84375 2.6875 -7.003906 2.96875 -7.171875 C 3.007812 -7.191406 3.050781 -7.21875 3.09375 -7.25 C 3.144531 -7.28125 3.191406 -7.296875 3.234375 -7.296875 C 3.285156 -7.296875 3.320312 -7.273438 3.34375 -7.234375 C 3.363281 -7.203125 3.375 -7.164062 3.375 -7.125 C 3.375 -7.039062 3.359375 -6.894531 3.328125 -6.6875 C 3.296875 -6.476562 3.28125 -6.296875 3.28125 -6.140625 C 3.28125 -6.097656 3.28125 -6.050781 3.28125 -6 C 3.289062 -5.945312 3.300781 -5.914062 3.3125 -5.90625 C 3.6875 -6.257812 4.078125 -6.535156 4.484375 -6.734375 C 4.890625 -6.929688 5.34375 -7.03125 5.84375 -7.03125 C 6.40625 -7.03125 6.875 -6.816406 7.25 -6.390625 C 7.632812 -5.960938 7.828125 -5.394531 7.828125 -4.6875 L 7.828125 -1.09375 C 7.828125 -0.875 7.890625 -0.726562 8.015625 -0.65625 C 8.148438 -0.59375 8.300781 -0.535156 8.46875 -0.484375 C 8.5625 -0.441406 8.644531 -0.394531 8.71875 -0.34375 C 8.789062 -0.300781 8.828125 -0.238281 8.828125 -0.15625 C 8.828125 -0.0820312 8.789062 -0.03125 8.71875 0 C 8.65625 0.03125 8.585938 0.046875 8.515625 0.046875 C 8.296875 0.046875 8.101562 0.0351562 7.9375 0.015625 C 7.78125 0.00390625 7.617188 -0.00390625 7.453125 -0.015625 C 7.296875 -0.0234375 7.117188 -0.03125 6.921875 -0.03125 C 6.734375 -0.03125 6.554688 -0.0234375 6.390625 -0.015625 C 6.222656 -0.00390625 6.050781 0.00390625 5.875 0.015625 C 5.707031 0.0351562 5.515625 0.046875 5.296875 0.046875 C 5.242188 0.046875 5.179688 0.03125 5.109375 0 C 5.046875 -0.03125 5.015625 -0.0820312 5.015625 -0.15625 C 5.015625 -0.238281 5.046875 -0.300781 5.109375 -0.34375 C 5.179688 -0.394531 5.257812 -0.441406 5.34375 -0.484375 C 5.507812 -0.535156 5.65625 -0.59375 5.78125 -0.65625 C 5.914062 -0.726562 5.984375 -0.875 5.984375 -1.09375 L 5.984375 -4.4375 C 5.984375 -4.882812 5.875 -5.234375 5.65625 -5.484375 C 5.4375 -5.734375 5.148438 -5.859375 4.796875 -5.859375 C 4.492188 -5.859375 4.234375 -5.8125 4.015625 -5.71875 C 3.796875 -5.632812 3.582031 -5.507812 3.375 -5.34375 C 3.320312 -5.3125 3.285156 -5.265625 3.265625 -5.203125 C 3.242188 -5.148438 3.234375 -5.085938 3.234375 -5.015625 L 3.234375 -1.09375 C 3.234375 -0.875 3.296875 -0.726562 3.421875 -0.65625 C 3.546875 -0.582031 3.691406 -0.523438 3.859375 -0.484375 C 4.097656 -0.398438 4.21875 -0.296875 4.21875 -0.171875 C 4.21875 -0.0976562 4.1875 -0.0390625 4.125 0 C 4.070312 0.03125 4.003906 0.046875 3.921875 0.046875 C 3.691406 0.046875 3.492188 0.0351562 3.328125 0.015625 C 3.171875 0.00390625 3.015625 -0.00390625 2.859375 -0.015625 C 2.703125 -0.0234375 2.523438 -0.03125 2.328125 -0.03125 C 2.140625 -0.03125 1.960938 -0.0234375 1.796875 -0.015625 C 1.628906 -0.00390625 1.457031 0.00390625 1.28125 0.015625 C 1.113281 0.0351562 0.914062 0.046875 0.6875 0.046875 Z M 0.6875 0.046875 "/></g></g></g><g fill="#ffffff" fill-opacity="1"><g transform="translate(158.371958, 254.091252)"><g><path d="M 3.828125 0.34375 C 3.765625 0.34375 3.695312 0.265625 3.625 0.109375 C 3.550781 -0.0351562 3.488281 -0.1875 3.4375 -0.34375 C 3.34375 -0.53125 3.25 -0.742188 3.15625 -0.984375 C 3.070312 -1.222656 2.988281 -1.441406 2.90625 -1.640625 C 2.644531 -2.285156 2.367188 -2.921875 2.078125 -3.546875 C 1.796875 -4.179688 1.507812 -4.828125 1.21875 -5.484375 C 1.125 -5.703125 1.003906 -5.894531 0.859375 -6.0625 C 0.722656 -6.238281 0.5625 -6.351562 0.375 -6.40625 C 0.28125 -6.445312 0.207031 -6.488281 0.15625 -6.53125 C 0.101562 -6.570312 0.078125 -6.640625 0.078125 -6.734375 C 0.078125 -6.816406 0.125 -6.863281 0.21875 -6.875 C 0.3125 -6.894531 0.394531 -6.90625 0.46875 -6.90625 C 0.707031 -6.90625 0.894531 -6.898438 1.03125 -6.890625 C 1.164062 -6.878906 1.296875 -6.863281 1.421875 -6.84375 C 1.554688 -6.832031 1.734375 -6.828125 1.953125 -6.828125 C 2.171875 -6.828125 2.351562 -6.832031 2.5 -6.84375 C 2.65625 -6.863281 2.816406 -6.878906 2.984375 -6.890625 C 3.148438 -6.898438 3.351562 -6.90625 3.59375 -6.90625 C 3.664062 -6.90625 3.742188 -6.894531 3.828125 -6.875 C 3.921875 -6.851562 3.96875 -6.796875 3.96875 -6.703125 C 3.96875 -6.617188 3.925781 -6.554688 3.84375 -6.515625 C 3.769531 -6.472656 3.6875 -6.4375 3.59375 -6.40625 C 3.476562 -6.363281 3.390625 -6.28125 3.328125 -6.15625 C 3.265625 -6.039062 3.234375 -5.894531 3.234375 -5.71875 C 3.234375 -5.625 3.234375 -5.535156 3.234375 -5.453125 C 3.242188 -5.367188 3.265625 -5.285156 3.296875 -5.203125 L 4.453125 -2.25 C 4.460938 -2.238281 4.472656 -2.234375 4.484375 -2.234375 C 4.492188 -2.234375 4.503906 -2.238281 4.515625 -2.25 L 5.578125 -5.046875 C 5.617188 -5.148438 5.648438 -5.25 5.671875 -5.34375 C 5.691406 -5.445312 5.703125 -5.539062 5.703125 -5.625 C 5.703125 -5.820312 5.660156 -5.984375 5.578125 -6.109375 C 5.503906 -6.242188 5.378906 -6.335938 5.203125 -6.390625 C 5.085938 -6.429688 4.992188 -6.472656 4.921875 -6.515625 C 4.859375 -6.554688 4.828125 -6.617188 4.828125 -6.703125 C 4.828125 -6.785156 4.867188 -6.835938 4.953125 -6.859375 C 5.046875 -6.890625 5.128906 -6.90625 5.203125 -6.90625 C 5.429688 -6.894531 5.628906 -6.878906 5.796875 -6.859375 C 5.960938 -6.847656 6.148438 -6.84375 6.359375 -6.84375 C 6.554688 -6.84375 6.722656 -6.847656 6.859375 -6.859375 C 6.992188 -6.878906 7.1875 -6.894531 7.4375 -6.90625 C 7.519531 -6.90625 7.601562 -6.894531 7.6875 -6.875 C 7.769531 -6.851562 7.8125 -6.800781 7.8125 -6.71875 C 7.8125 -6.570312 7.703125 -6.460938 7.484375 -6.390625 C 7.296875 -6.328125 7.109375 -6.203125 6.921875 -6.015625 C 6.742188 -5.828125 6.597656 -5.597656 6.484375 -5.328125 L 5.203125 -2.140625 C 5.179688 -2.066406 5.140625 -1.96875 5.078125 -1.84375 C 5.023438 -1.71875 4.96875 -1.582031 4.90625 -1.4375 C 4.851562 -1.289062 4.800781 -1.160156 4.75 -1.046875 C 4.695312 -0.929688 4.660156 -0.847656 4.640625 -0.796875 C 4.617188 -0.734375 4.570312 -0.628906 4.5 -0.484375 C 4.4375 -0.335938 4.367188 -0.179688 4.296875 -0.015625 C 4.222656 0.140625 4.160156 0.257812 4.109375 0.34375 Z M 3.828125 0.34375 "/></g></g></g><g fill="#ffffff" fill-opacity="1"><g transform="translate(169.602445, 254.091252)"><g><path d="M 3.5 0.234375 C 2.894531 0.234375 2.359375 0.0820312 1.890625 -0.21875 C 1.429688 -0.53125 1.066406 -0.957031 0.796875 -1.5 C 0.535156 -2.050781 0.40625 -2.675781 0.40625 -3.375 C 0.40625 -4.039062 0.5625 -4.648438 0.875 -5.203125 C 1.195312 -5.765625 1.617188 -6.207031 2.140625 -6.53125 C 2.671875 -6.863281 3.25 -7.03125 3.875 -7.03125 C 4.34375 -7.03125 4.757812 -6.929688 5.125 -6.734375 C 5.488281 -6.546875 5.773438 -6.285156 5.984375 -5.953125 C 6.203125 -5.617188 6.3125 -5.242188 6.3125 -4.828125 C 6.3125 -4.429688 6.140625 -4.234375 5.796875 -4.234375 L 2.4375 -4.234375 C 2.289062 -4.234375 2.179688 -4.191406 2.109375 -4.109375 C 2.035156 -4.023438 2 -3.875 2 -3.65625 C 2 -3.1875 2.097656 -2.765625 2.296875 -2.390625 C 2.503906 -2.015625 2.78125 -1.71875 3.125 -1.5 C 3.46875 -1.28125 3.859375 -1.171875 4.296875 -1.171875 C 4.609375 -1.171875 4.898438 -1.234375 5.171875 -1.359375 C 5.441406 -1.484375 5.703125 -1.65625 5.953125 -1.875 C 5.992188 -1.914062 6.03125 -1.945312 6.0625 -1.96875 C 6.09375 -2 6.125 -2.015625 6.15625 -2.015625 C 6.269531 -2.015625 6.328125 -1.945312 6.328125 -1.8125 C 6.328125 -1.65625 6.257812 -1.46875 6.125 -1.25 C 5.988281 -1 5.796875 -0.757812 5.546875 -0.53125 C 5.304688 -0.300781 5.007812 -0.117188 4.65625 0.015625 C 4.300781 0.160156 3.914062 0.234375 3.5 0.234375 Z M 2.4375 -4.875 L 3.609375 -4.875 C 3.898438 -4.875 4.113281 -4.878906 4.25 -4.890625 C 4.394531 -4.898438 4.535156 -4.921875 4.671875 -4.953125 C 4.722656 -4.960938 4.757812 -5.007812 4.78125 -5.09375 C 4.8125 -5.175781 4.828125 -5.273438 4.828125 -5.390625 C 4.828125 -5.679688 4.710938 -5.925781 4.484375 -6.125 C 4.253906 -6.332031 3.976562 -6.4375 3.65625 -6.4375 C 3.414062 -6.4375 3.1875 -6.367188 2.96875 -6.234375 C 2.75 -6.097656 2.566406 -5.925781 2.421875 -5.71875 C 2.285156 -5.507812 2.222656 -5.296875 2.234375 -5.078125 C 2.234375 -4.941406 2.300781 -4.875 2.4375 -4.875 Z M 2.4375 -4.875 "/></g></g></g><g fill="#ffffff" fill-opacity="1"><g transform="translate(179.84224, 254.091252)"><g><path d="M 0.6875 0.046875 C 0.601562 0.046875 0.523438 0.03125 0.453125 0 C 0.390625 -0.0390625 0.359375 -0.0976562 0.359375 -0.171875 C 0.359375 -0.253906 0.394531 -0.316406 0.46875 -0.359375 C 0.539062 -0.398438 0.632812 -0.441406 0.75 -0.484375 C 0.90625 -0.523438 1.050781 -0.582031 1.1875 -0.65625 C 1.332031 -0.738281 1.40625 -0.890625 1.40625 -1.109375 L 1.40625 -4.8125 C 1.40625 -5.0625 1.367188 -5.273438 1.296875 -5.453125 C 1.222656 -5.640625 1.070312 -5.757812 0.84375 -5.8125 C 0.800781 -5.832031 0.757812 -5.863281 0.71875 -5.90625 C 0.6875 -5.945312 0.671875 -6.007812 0.671875 -6.09375 C 0.671875 -6.238281 0.722656 -6.320312 0.828125 -6.34375 C 1.210938 -6.425781 1.59375 -6.539062 1.96875 -6.6875 C 2.351562 -6.84375 2.6875 -7.003906 2.96875 -7.171875 C 3.007812 -7.191406 3.050781 -7.21875 3.09375 -7.25 C 3.144531 -7.28125 3.191406 -7.296875 3.234375 -7.296875 C 3.285156 -7.296875 3.320312 -7.273438 3.34375 -7.234375 C 3.363281 -7.203125 3.375 -7.164062 3.375 -7.125 C 3.375 -7.039062 3.359375 -6.894531 3.328125 -6.6875 C 3.296875 -6.476562 3.28125 -6.296875 3.28125 -6.140625 C 3.28125 -6.097656 3.28125 -6.050781 3.28125 -6 C 3.289062 -5.945312 3.300781 -5.914062 3.3125 -5.90625 C 3.6875 -6.257812 4.078125 -6.535156 4.484375 -6.734375 C 4.890625 -6.929688 5.34375 -7.03125 5.84375 -7.03125 C 6.40625 -7.03125 6.875 -6.816406 7.25 -6.390625 C 7.632812 -5.960938 7.828125 -5.394531 7.828125 -4.6875 L 7.828125 -1.09375 C 7.828125 -0.875 7.890625 -0.726562 8.015625 -0.65625 C 8.148438 -0.59375 8.300781 -0.535156 8.46875 -0.484375 C 8.5625 -0.441406 8.644531 -0.394531 8.71875 -0.34375 C 8.789062 -0.300781 8.828125 -0.238281 8.828125 -0.15625 C 8.828125 -0.0820312 8.789062 -0.03125 8.71875 0 C 8.65625 0.03125 8.585938 0.046875 8.515625 0.046875 C 8.296875 0.046875 8.101562 0.0351562 7.9375 0.015625 C 7.78125 0.00390625 7.617188 -0.00390625 7.453125 -0.015625 C 7.296875 -0.0234375 7.117188 -0.03125 6.921875 -0.03125 C 6.734375 -0.03125 6.554688 -0.0234375 6.390625 -0.015625 C 6.222656 -0.00390625 6.050781 0.00390625 5.875 0.015625 C 5.707031 0.0351562 5.515625 0.046875 5.296875 0.046875 C 5.242188 0.046875 5.179688 0.03125 5.109375 0 C 5.046875 -0.03125 5.015625 -0.0820312 5.015625 -0.15625 C 5.015625 -0.238281 5.046875 -0.300781 5.109375 -0.34375 C 5.179688 -0.394531 5.257812 -0.441406 5.34375 -0.484375 C 5.507812 -0.535156 5.65625 -0.59375 5.78125 -0.65625 C 5.914062 -0.726562 5.984375 -0.875 5.984375 -1.09375 L 5.984375 -4.4375 C 5.984375 -4.882812 5.875 -5.234375 5.65625 -5.484375 C 5.4375 -5.734375 5.148438 -5.859375 4.796875 -5.859375 C 4.492188 -5.859375 4.234375 -5.8125 4.015625 -5.71875 C 3.796875 -5.632812 3.582031 -5.507812 3.375 -5.34375 C 3.320312 -5.3125 3.285156 -5.265625 3.265625 -5.203125 C 3.242188 -5.148438 3.234375 -5.085938 3.234375 -5.015625 L 3.234375 -1.09375 C 3.234375 -0.875 3.296875 -0.726562 3.421875 -0.65625 C 3.546875 -0.582031 3.691406 -0.523438 3.859375 -0.484375 C 4.097656 -0.398438 4.21875 -0.296875 4.21875 -0.171875 C 4.21875 -0.0976562 4.1875 -0.0390625 4.125 0 C 4.070312 0.03125 4.003906 0.046875 3.921875 0.046875 C 3.691406 0.046875 3.492188 0.0351562 3.328125 0.015625 C 3.171875 0.00390625 3.015625 -0.00390625 2.859375 -0.015625 C 2.703125 -0.0234375 2.523438 -0.03125 2.328125 -0.03125 C 2.140625 -0.03125 1.960938 -0.0234375 1.796875 -0.015625 C 1.628906 -0.00390625 1.457031 0.00390625 1.28125 0.015625 C 1.113281 0.0351562 0.914062 0.046875 0.6875 0.046875 Z M 0.6875 0.046875 "/></g></g></g><g fill="#ffffff" fill-opacity="1"><g transform="translate(192.476218, 254.091252)"><g><path d="M 3.453125 0.234375 C 2.785156 0.234375 2.28125 0.0546875 1.9375 -0.296875 C 1.601562 -0.648438 1.4375 -1.160156 1.4375 -1.828125 L 1.4375 -5.640625 C 1.4375 -5.734375 1.398438 -5.800781 1.328125 -5.84375 C 1.253906 -5.882812 1.113281 -5.910156 0.90625 -5.921875 L 0.734375 -5.921875 C 0.660156 -5.921875 0.601562 -5.972656 0.5625 -6.078125 C 0.519531 -6.191406 0.5 -6.296875 0.5 -6.390625 C 0.5 -6.410156 0.503906 -6.441406 0.515625 -6.484375 C 0.535156 -6.523438 0.5625 -6.550781 0.59375 -6.5625 C 0.84375 -6.664062 1.097656 -6.8125 1.359375 -7 C 1.628906 -7.195312 1.878906 -7.394531 2.109375 -7.59375 C 2.335938 -7.800781 2.53125 -7.976562 2.6875 -8.125 C 2.769531 -8.175781 2.832031 -8.222656 2.875 -8.265625 C 2.925781 -8.316406 2.988281 -8.34375 3.0625 -8.34375 C 3.144531 -8.34375 3.210938 -8.320312 3.265625 -8.28125 C 3.316406 -8.238281 3.328125 -8.164062 3.296875 -8.0625 L 3.203125 -7.15625 C 3.191406 -7.019531 3.222656 -6.929688 3.296875 -6.890625 C 3.367188 -6.847656 3.46875 -6.828125 3.59375 -6.828125 L 5.546875 -6.828125 C 5.578125 -6.828125 5.609375 -6.785156 5.640625 -6.703125 C 5.679688 -6.628906 5.703125 -6.550781 5.703125 -6.46875 C 5.703125 -6.332031 5.679688 -6.203125 5.640625 -6.078125 C 5.597656 -5.953125 5.550781 -5.890625 5.5 -5.890625 L 3.9375 -5.890625 C 3.675781 -5.890625 3.5 -5.863281 3.40625 -5.8125 C 3.3125 -5.757812 3.265625 -5.644531 3.265625 -5.46875 L 3.265625 -2.296875 C 3.265625 -1.804688 3.359375 -1.4375 3.546875 -1.1875 C 3.734375 -0.945312 4 -0.828125 4.34375 -0.828125 C 4.65625 -0.828125 4.890625 -0.851562 5.046875 -0.90625 C 5.203125 -0.957031 5.347656 -1.023438 5.484375 -1.109375 C 5.515625 -1.128906 5.539062 -1.140625 5.5625 -1.140625 C 5.613281 -1.140625 5.65625 -1.101562 5.6875 -1.03125 C 5.71875 -0.96875 5.734375 -0.898438 5.734375 -0.828125 C 5.734375 -0.773438 5.625 -0.660156 5.40625 -0.484375 C 5.195312 -0.304688 4.914062 -0.144531 4.5625 0 C 4.21875 0.15625 3.847656 0.234375 3.453125 0.234375 Z M 3.453125 0.234375 "/></g></g></g><g fill="#ffffff" fill-opacity="1"><g transform="translate(201.840884, 254.091252)"><g><path d="M 2.0625 0.234375 C 1.800781 0.234375 1.550781 0.160156 1.3125 0.015625 C 1.070312 -0.128906 0.878906 -0.316406 0.734375 -0.546875 C 0.597656 -0.773438 0.53125 -1.007812 0.53125 -1.25 C 0.53125 -1.625 0.640625 -1.929688 0.859375 -2.171875 C 1.078125 -2.410156 1.40625 -2.625 1.84375 -2.8125 L 3.390625 -3.46875 C 3.609375 -3.550781 3.738281 -3.628906 3.78125 -3.703125 C 3.832031 -3.785156 3.859375 -3.929688 3.859375 -4.140625 L 3.890625 -5.125 C 3.910156 -5.425781 3.847656 -5.671875 3.703125 -5.859375 C 3.566406 -6.046875 3.363281 -6.140625 3.09375 -6.140625 C 2.945312 -6.140625 2.796875 -6.113281 2.640625 -6.0625 C 2.484375 -6.007812 2.363281 -5.9375 2.28125 -5.84375 C 2.238281 -5.800781 2.207031 -5.742188 2.1875 -5.671875 C 2.164062 -5.597656 2.15625 -5.53125 2.15625 -5.46875 C 2.15625 -5.414062 2.160156 -5.347656 2.171875 -5.265625 C 2.179688 -5.179688 2.1875 -5.101562 2.1875 -5.03125 C 2.1875 -4.96875 2.101562 -4.882812 1.9375 -4.78125 C 1.769531 -4.6875 1.582031 -4.597656 1.375 -4.515625 C 1.164062 -4.441406 0.988281 -4.40625 0.84375 -4.40625 C 0.769531 -4.40625 0.707031 -4.429688 0.65625 -4.484375 C 0.613281 -4.546875 0.59375 -4.613281 0.59375 -4.6875 C 0.59375 -4.863281 0.648438 -5.039062 0.765625 -5.21875 C 0.878906 -5.40625 1.066406 -5.601562 1.328125 -5.8125 C 1.597656 -6.039062 1.894531 -6.242188 2.21875 -6.421875 C 2.550781 -6.609375 2.875 -6.753906 3.1875 -6.859375 C 3.507812 -6.972656 3.785156 -7.03125 4.015625 -7.03125 C 4.546875 -7.03125 4.96875 -6.859375 5.28125 -6.515625 C 5.601562 -6.171875 5.757812 -5.71875 5.75 -5.15625 L 5.671875 -1.625 C 5.648438 -1.375 5.691406 -1.164062 5.796875 -1 C 5.910156 -0.84375 6.039062 -0.765625 6.1875 -0.765625 C 6.425781 -0.765625 6.613281 -0.828125 6.75 -0.953125 C 6.800781 -1.003906 6.84375 -1.03125 6.875 -1.03125 C 6.925781 -1.03125 6.96875 -1.007812 7 -0.96875 C 7.039062 -0.925781 7.0625 -0.878906 7.0625 -0.828125 C 7.0625 -0.703125 6.972656 -0.550781 6.796875 -0.375 C 6.597656 -0.175781 6.382812 -0.0234375 6.15625 0.078125 C 5.9375 0.179688 5.71875 0.234375 5.5 0.234375 C 4.914062 0.234375 4.441406 -0.0664062 4.078125 -0.671875 L 4.03125 -0.671875 C 3.664062 -0.359375 3.332031 -0.128906 3.03125 0.015625 C 2.726562 0.160156 2.40625 0.234375 2.0625 0.234375 Z M 2.96875 -0.765625 C 3.125 -0.765625 3.253906 -0.785156 3.359375 -0.828125 C 3.472656 -0.878906 3.570312 -0.953125 3.65625 -1.046875 C 3.695312 -1.097656 3.726562 -1.160156 3.75 -1.234375 C 3.78125 -1.316406 3.800781 -1.425781 3.8125 -1.5625 L 3.84375 -2.625 C 3.851562 -2.738281 3.84375 -2.8125 3.8125 -2.84375 C 3.78125 -2.882812 3.742188 -2.90625 3.703125 -2.90625 C 3.679688 -2.90625 3.644531 -2.898438 3.59375 -2.890625 C 3.550781 -2.890625 3.503906 -2.875 3.453125 -2.84375 C 3.046875 -2.675781 2.753906 -2.5 2.578125 -2.3125 C 2.398438 -2.125 2.3125 -1.878906 2.3125 -1.578125 C 2.3125 -1.285156 2.378906 -1.078125 2.515625 -0.953125 C 2.660156 -0.828125 2.8125 -0.765625 2.96875 -0.765625 Z M 2.96875 -0.765625 "/></g></g></g><g fill="#ffffff" fill-opacity="1"><g transform="translate(212.361368, 254.091252)"><g><path d="M 0.734375 0.046875 C 0.640625 0.046875 0.554688 0.03125 0.484375 0 C 0.421875 -0.0390625 0.390625 -0.0976562 0.390625 -0.171875 C 0.390625 -0.253906 0.425781 -0.316406 0.5 -0.359375 C 0.570312 -0.398438 0.664062 -0.441406 0.78125 -0.484375 C 1.007812 -0.546875 1.171875 -0.625 1.265625 -0.71875 C 1.359375 -0.8125 1.40625 -0.941406 1.40625 -1.109375 L 1.40625 -4.828125 C 1.40625 -5.078125 1.367188 -5.285156 1.296875 -5.453125 C 1.222656 -5.628906 1.070312 -5.742188 0.84375 -5.796875 C 0.800781 -5.816406 0.753906 -5.847656 0.703125 -5.890625 C 0.660156 -5.929688 0.640625 -5.988281 0.640625 -6.0625 C 0.640625 -6.207031 0.703125 -6.296875 0.828125 -6.328125 C 1.160156 -6.410156 1.519531 -6.523438 1.90625 -6.671875 C 2.289062 -6.828125 2.613281 -6.976562 2.875 -7.125 C 2.925781 -7.15625 2.984375 -7.1875 3.046875 -7.21875 C 3.117188 -7.25 3.171875 -7.265625 3.203125 -7.265625 C 3.296875 -7.265625 3.34375 -7.210938 3.34375 -7.109375 C 3.34375 -7.054688 3.335938 -6.953125 3.328125 -6.796875 C 3.316406 -6.648438 3.304688 -6.484375 3.296875 -6.296875 C 3.296875 -6.117188 3.289062 -5.957031 3.28125 -5.8125 C 3.28125 -5.75 3.300781 -5.71875 3.34375 -5.71875 C 3.507812 -5.945312 3.703125 -6.160156 3.921875 -6.359375 C 4.148438 -6.554688 4.382812 -6.71875 4.625 -6.84375 C 4.875 -6.976562 5.128906 -7.046875 5.390625 -7.046875 C 5.703125 -7.046875 5.9375 -6.976562 6.09375 -6.84375 C 6.257812 -6.71875 6.34375 -6.554688 6.34375 -6.359375 C 6.34375 -6.203125 6.300781 -6.035156 6.21875 -5.859375 C 6.132812 -5.679688 6.03125 -5.53125 5.90625 -5.40625 C 5.78125 -5.28125 5.640625 -5.21875 5.484375 -5.21875 C 5.390625 -5.21875 5.289062 -5.234375 5.1875 -5.265625 C 5.09375 -5.304688 5 -5.359375 4.90625 -5.421875 C 4.800781 -5.460938 4.695312 -5.503906 4.59375 -5.546875 C 4.488281 -5.585938 4.394531 -5.609375 4.3125 -5.609375 C 4.03125 -5.609375 3.78125 -5.503906 3.5625 -5.296875 C 3.34375 -5.097656 3.234375 -4.703125 3.234375 -4.109375 L 3.234375 -1.203125 C 3.234375 -1.003906 3.304688 -0.851562 3.453125 -0.75 C 3.597656 -0.644531 3.816406 -0.550781 4.109375 -0.46875 C 4.234375 -0.425781 4.320312 -0.382812 4.375 -0.34375 C 4.4375 -0.3125 4.46875 -0.253906 4.46875 -0.171875 C 4.46875 -0.0234375 4.367188 0.046875 4.171875 0.046875 C 3.847656 0.046875 3.539062 0.03125 3.25 0 C 2.957031 -0.0195312 2.664062 -0.03125 2.375 -0.03125 C 2.1875 -0.03125 2.003906 -0.0234375 1.828125 -0.015625 C 1.660156 -0.00390625 1.488281 0.00390625 1.3125 0.015625 C 1.144531 0.0351562 0.953125 0.046875 0.734375 0.046875 Z M 0.734375 0.046875 "/></g></g></g><g fill="#ffffff" fill-opacity="1"><g transform="translate(222.270921, 254.091252)"><g><path d="M 0.65625 0.046875 C 0.570312 0.046875 0.5 0.03125 0.4375 0 C 0.382812 -0.0390625 0.359375 -0.0976562 0.359375 -0.171875 C 0.359375 -0.253906 0.390625 -0.316406 0.453125 -0.359375 C 0.523438 -0.398438 0.601562 -0.4375 0.6875 -0.46875 C 0.957031 -0.53125 1.148438 -0.597656 1.265625 -0.671875 C 1.378906 -0.753906 1.4375 -0.890625 1.4375 -1.078125 L 1.4375 -4.65625 C 1.4375 -5.007812 1.378906 -5.273438 1.265625 -5.453125 C 1.160156 -5.628906 0.972656 -5.738281 0.703125 -5.78125 C 0.648438 -5.789062 0.609375 -5.820312 0.578125 -5.875 C 0.546875 -5.925781 0.53125 -5.984375 0.53125 -6.046875 C 0.53125 -6.203125 0.585938 -6.285156 0.703125 -6.296875 C 1.234375 -6.398438 1.691406 -6.546875 2.078125 -6.734375 C 2.472656 -6.929688 2.773438 -7.085938 2.984375 -7.203125 C 3.140625 -7.273438 3.238281 -7.3125 3.28125 -7.3125 C 3.40625 -7.3125 3.46875 -7.257812 3.46875 -7.15625 C 3.457031 -7 3.4375 -6.785156 3.40625 -6.515625 C 3.375 -6.242188 3.34375 -5.957031 3.3125 -5.65625 C 3.28125 -5.351562 3.265625 -5.070312 3.265625 -4.8125 L 3.265625 -1.09375 C 3.265625 -0.925781 3.328125 -0.796875 3.453125 -0.703125 C 3.578125 -0.617188 3.769531 -0.539062 4.03125 -0.46875 C 4.113281 -0.425781 4.1875 -0.382812 4.25 -0.34375 C 4.320312 -0.3125 4.359375 -0.253906 4.359375 -0.171875 C 4.359375 -0.0351562 4.265625 0.03125 4.078125 0.03125 C 3.867188 0.03125 3.664062 0.0234375 3.46875 0.015625 C 3.28125 0.00390625 3.09375 -0.00390625 2.90625 -0.015625 C 2.726562 -0.0234375 2.539062 -0.03125 2.34375 -0.03125 C 2.15625 -0.03125 1.972656 -0.0234375 1.796875 -0.015625 C 1.617188 -0.00390625 1.4375 0.00390625 1.25 0.015625 C 1.070312 0.0351562 0.875 0.046875 0.65625 0.046875 Z M 2.3125 -8.28125 C 2 -8.28125 1.726562 -8.390625 1.5 -8.609375 C 1.28125 -8.828125 1.171875 -9.085938 1.171875 -9.390625 C 1.171875 -9.734375 1.28125 -10.015625 1.5 -10.234375 C 1.726562 -10.453125 2 -10.5625 2.3125 -10.5625 C 2.644531 -10.5625 2.921875 -10.453125 3.140625 -10.234375 C 3.359375 -10.015625 3.46875 -9.734375 3.46875 -9.390625 C 3.46875 -9.085938 3.359375 -8.828125 3.140625 -8.609375 C 2.921875 -8.390625 2.644531 -8.28125 2.3125 -8.28125 Z M 2.3125 -8.28125 "/></g></g></g><g fill="#ffffff" fill-opacity="1"><g transform="translate(230.380707, 254.091252)"><g><path d="M 3.890625 0.234375 C 3.242188 0.234375 2.660156 0.0859375 2.140625 -0.203125 C 1.628906 -0.492188 1.21875 -0.898438 0.90625 -1.421875 C 0.601562 -1.941406 0.453125 -2.523438 0.453125 -3.171875 C 0.453125 -3.679688 0.550781 -4.164062 0.75 -4.625 C 0.945312 -5.082031 1.210938 -5.492188 1.546875 -5.859375 C 1.890625 -6.222656 2.289062 -6.507812 2.75 -6.71875 C 3.21875 -6.9375 3.71875 -7.046875 4.25 -7.046875 C 4.914062 -7.046875 5.515625 -6.890625 6.046875 -6.578125 C 6.585938 -6.265625 7.015625 -5.847656 7.328125 -5.328125 C 7.648438 -4.816406 7.8125 -4.253906 7.8125 -3.640625 C 7.8125 -2.953125 7.664062 -2.3125 7.375 -1.71875 C 7.082031 -1.132812 6.644531 -0.660156 6.0625 -0.296875 C 5.488281 0.0546875 4.765625 0.234375 3.890625 0.234375 Z M 4.234375 -0.40625 C 4.503906 -0.40625 4.742188 -0.460938 4.953125 -0.578125 C 5.171875 -0.691406 5.347656 -0.863281 5.484375 -1.09375 C 5.617188 -1.320312 5.707031 -1.625 5.75 -2 C 5.800781 -2.382812 5.828125 -2.796875 5.828125 -3.234375 C 5.828125 -3.816406 5.75 -4.34375 5.59375 -4.8125 C 5.445312 -5.289062 5.234375 -5.671875 4.953125 -5.953125 C 4.679688 -6.242188 4.359375 -6.390625 3.984375 -6.390625 C 3.773438 -6.390625 3.582031 -6.351562 3.40625 -6.28125 C 3.238281 -6.207031 3.082031 -6.085938 2.9375 -5.921875 C 2.738281 -5.691406 2.601562 -5.375 2.53125 -4.96875 C 2.457031 -4.570312 2.421875 -4.109375 2.421875 -3.578125 C 2.421875 -3.054688 2.5 -2.550781 2.65625 -2.0625 C 2.820312 -1.582031 3.039062 -1.1875 3.3125 -0.875 C 3.582031 -0.5625 3.890625 -0.40625 4.234375 -0.40625 Z M 4.234375 -0.40625 "/></g></g></g></svg>